<svg xmlns="http://www.w3.org/2000/svg" width="304.06" height="116.503" viewBox="0 0 304.06 116.503">
  <g id="Your_all-time_fav_mobile" data-name="Your all-time fav_mobile" transform="translate(10164.331 -486.239)">
    <g id="Group_270" data-name="Group 270" transform="translate(-12911.809 -830.476)">
      <g id="Group_266" data-name="Group 266">
        <g id="Group_265" data-name="Group 265">
          <path id="Path_151" data-name="Path 151" d="M2778.646,1370.462l.949,12.014-8.574.676-.949-12.013-13.264-19.97,8.873-.7,5.348,8.657,2.876,5.29,2.06-5.68,3.924-9.389,8.723-.689Z" fill="#fff" stroke="#bcebf8" stroke-width="1.5"/>
          <path id="Path_152" data-name="Path 152" d="M2811.581,1364.344c1.642,8.035-2.15,13.71-10.333,15.381s-13.9-2.061-15.537-10.1,2.15-13.71,10.332-15.382S2809.939,1356.309,2811.581,1364.344Zm-17.541,3.583c.981,4.8,2.91,6.5,6,5.87s4.195-2.95,3.214-7.752-2.91-6.5-6-5.869S2793.06,1363.125,2794.04,1367.927Z" fill="#fff" stroke="#bcebf8" stroke-width="1.5"/>
          <path id="Path_153" data-name="Path 153" d="M2834.5,1344.038l7.226,23.934-7.277,2.2-1.583-4.38c-.472,3.8-2.915,6.26-6.792,7.431-4.883,1.473-8.908.077-10.728-5.954l-4.827-15.988,8.137-2.457,4.205,13.93c.983,3.255,2.483,3.9,4.589,3.263,2.537-.766,3.9-3,2.742-6.834l-3.829-12.685Z" fill="#fff" stroke="#bcebf8" stroke-width="1.5"/>
          <path id="Path_154" data-name="Path 154" d="M2858.508,1338.792l.577,7.233a6.5,6.5,0,0,0-3.237-.1c-2.938.608-5.089,3.045-4.288,6.913l2.552,12.339-8.323,1.722-5.066-24.482,7.344-1.52,1.427,5.168c.475-3.877,2.439-6.478,6.258-7.268A5.739,5.739,0,0,1,2858.508,1338.792Z" fill="#fff" stroke="#bcebf8" stroke-width="1.5"/>
          <path id="Path_155" data-name="Path 155" d="M2898.393,1355.717l-.4,4.776a6.956,6.956,0,0,1-3.353.976c-3.345.174-5.751-.853-6.64-3.51-1.273,2.469-4.1,4.067-8.687,4.307-4.943.255-7.853-1.8-8.063-5.839-.216-4.145,2.293-6.928,9.31-8.695l5.585-1.391-.047-.9a3.35,3.35,0,0,0-3.737-3.51c-2.4.125-4.094,1.164-4.443,4.086l-6.994-1.639c.6-4.787,4.344-7.936,11.134-8.288,7.688-.4,12.095,2.525,12.43,8.966l.472,9.087q.1,1.945,1.9,1.853A4.875,4.875,0,0,0,2898.393,1355.717Zm-11.915-2.885-.112-2.147-3.995,1.159c-2.07.607-2.883,1.35-2.81,2.749s1.01,2.1,2.558,2.019C2884.216,1356.5,2886.6,1355.128,2886.478,1352.832Z" fill="#fff" stroke="#bcebf8" stroke-width="1.5"/>
          <path id="Path_156" data-name="Path 156" d="M2908.973,1352.548c-.034,2.2.5,3.108,2.252,3.135a7.186,7.186,0,0,0,2.556-.412l-.63,5.241a10.945,10.945,0,0,1-5.217,1.171c-5.349-.082-7.563-2.466-7.478-8.015l.43-28.192,8.5.128Z" fill="#fff" stroke="#bcebf8" stroke-width="1.5"/>
          <path id="Path_157" data-name="Path 157" d="M2924.412,1353.36c-.153,2.2.333,3.131,2.079,3.252a7.183,7.183,0,0,0,2.575-.272l-.912,5.2a10.944,10.944,0,0,1-5.274.887c-5.337-.37-7.419-2.871-7.034-8.407l1.953-28.133,8.479.589Z" fill="#fff" stroke="#bcebf8" stroke-width="1.5"/>
          <path id="Path_158" data-name="Path 158" d="M2946.559,1354.91l-18.112-2.619.995-6.879,18.112,2.619Z" fill="#fff" stroke="#bcebf8" stroke-width="1.5"/>
          <path id="Path_159" data-name="Path 159" d="M2965.388,1368.38a13.3,13.3,0,0,1-7.3.1c-5.475-1.4-8.322-4.394-6.937-10.026l2.83-11.095-4.166-1.062,1.5-5.862,4.166,1.062,1.384-5.426,8.817-.175-1.965,7.7,7.267,1.853-1.5,5.862-7.266-1.853-2.485,9.737c-.593,2.325.334,3.543,2.37,4.062a5.815,5.815,0,0,0,3.759-.176Z" fill="#fff" stroke="#bcebf8" stroke-width="1.5"/>
          <path id="Path_160" data-name="Path 160" d="M2975.344,1373.113l-8.127-2.495,7.34-23.9,8.127,2.5Zm.584-33.249c.837-2.724,2.637-3.479,5.936-2.467s4.365,2.649,3.529,5.374c-.822,2.677-2.623,3.432-5.921,2.419S2975.1,1342.542,2975.928,1339.864Z" fill="#fff" stroke="#bcebf8" stroke-width="1.5"/>
          <path id="Path_161" data-name="Path 161" d="M3023.975,1367.246l-3.3,16.322-8.244-1.613,2.822-14.427c.6-3.091-.5-4.479-2.512-4.873-2.5-.489-4.683,1.021-5.4,4.7l-2.563,13.1-8.342-1.632,2.822-14.427c.6-3.091-.549-4.489-2.512-4.873-2.306-.451-4.644.825-5.432,4.848l-2.533,12.955-8.343-1.631,4.8-24.536,7.459,1.458-.676,4.76a8.732,8.732,0,0,1,9.262-3.59c3.631.71,6.249,2.955,6.833,6.482a8.9,8.9,0,0,1,9.164-3.353C3022.091,1357.859,3025.146,1361.515,3023.975,1367.246Z" fill="#fff" stroke="#bcebf8" stroke-width="1.5"/>
          <path id="Path_162" data-name="Path 162" d="M3050.44,1373.876l-17.041-.525c.45,3.265,2.259,4.622,5.107,4.71,2.5.076,4.079-.875,4.682-2.608l6.829,2.412c-1.583,4.3-5.9,6.37-11.7,6.192-8.745-.27-13.346-5.163-13.092-13.41s5.1-12.847,13.444-12.589c8.145.251,12.347,5.131,12.1,13.028A15.683,15.683,0,0,1,3050.44,1373.876Zm-16.9-5.123,9.4.29c-.351-3.212-1.848-4.959-4.5-5.041C3035.741,1363.919,3034.1,1365.369,3033.541,1368.753Z" fill="#fff" stroke="#bcebf8" stroke-width="1.5"/>
        </g>
      </g>
      <g id="Group_267" data-name="Group 267">
        <path id="Path_163" data-name="Path 163" d="M2806.681,1403.953l7.572-.648.517,6.027-7.075.606,1.616,18.882-8.47.725-1.615-18.882-3.987.341-.516-6.028,3.986-.341-.2-2.292c-.537-6.279,3.667-9.348,9.3-9.829a9.572,9.572,0,0,1,5.851.953l-.394,5.354a4.393,4.393,0,0,0-2.909-.553c-2.589.221-4.049,1.349-3.828,3.941Z" fill="#fff" stroke="#bcebf8" stroke-width="1.5"/>
        <path id="Path_164" data-name="Path 164" d="M2844.866,1416.686l.474,4.77a6.953,6.953,0,0,1-3.119,1.57c-3.257.78-5.811.209-7.169-2.241-.8,2.659-3.284,4.744-7.758,5.817-4.813,1.153-8.047-.334-8.99-4.272-.968-4.035.992-7.229,7.57-10.245l5.237-2.387-.21-.874a3.351,3.351,0,0,0-4.314-2.77c-2.332.559-3.813,1.889-3.624,4.826l-7.175-.338c-.28-4.815,2.825-8.593,9.437-10.178,7.488-1.793,12.354.28,13.856,6.552l2.119,8.849q.456,1.9,2.205,1.477A4.867,4.867,0,0,0,2844.866,1416.686Zm-12.24-.665-.5-2.091-3.716,1.867c-1.926.974-2.59,1.853-2.264,3.216s1.377,1.881,2.883,1.519C2831.07,1420.043,2833.16,1418.257,2832.626,1416.021Z" fill="#fff" stroke="#bcebf8" stroke-width="1.5"/>
        <path id="Path_165" data-name="Path 165" d="M2865.428,1390.078l-2.5,26.451-9.831,2.523-14.93-21.978,8.668-2.224,9.859,17.7.214-20.289Z" fill="#fff" stroke="#bcebf8" stroke-width="1.5"/>
        <path id="Path_166" data-name="Path 166" d="M2893.117,1399.729c.858,8.154-3.464,13.435-11.767,14.308s-13.63-3.4-14.488-11.55,3.465-13.435,11.769-14.307S2892.261,1391.572,2893.117,1399.729Zm-17.8,1.871c.513,4.873,2.269,6.749,5.4,6.42s4.46-2.53,3.948-7.4-2.269-6.749-5.4-6.42S2874.8,1396.727,2875.315,1401.6Z" fill="#fff" stroke="#bcebf8" stroke-width="1.5"/>
        <path id="Path_167" data-name="Path 167" d="M2922.256,1387.792l-.516,25-7.6-.156-.155-4.655c-1.623,3.468-4.706,5.054-8.756,4.97-5.1-.1-8.5-2.676-8.367-8.974l.346-16.7,8.5.176-.3,14.548c-.07,3.4,1.157,4.476,3.357,4.522,2.65.054,4.636-1.656,4.718-5.655l.275-13.249Z" fill="#fff" stroke="#bcebf8" stroke-width="1.5"/>
        <path id="Path_168" data-name="Path 168" d="M2945.817,1390.8l-1.836,7.019a6.468,6.468,0,0,0-3.024-1.156c-2.974-.394-5.808,1.2-6.324,5.115l-1.653,12.492-8.426-1.115,3.275-24.784,7.438.982-.356,5.35c1.726-3.5,4.435-5.313,8.3-4.8A5.741,5.741,0,0,1,2945.817,1390.8Z" fill="#fff" stroke="#bcebf8" stroke-width="1.5"/>
        <path id="Path_169" data-name="Path 169" d="M2951.929,1418.065l-8.263-1.993,5.866-24.3,8.261,1.995Zm-1.448-33.212c.669-2.771,2.421-3.634,5.773-2.825s4.518,2.376,3.85,5.148c-.657,2.72-2.408,3.584-5.761,2.774S2949.825,1387.574,2950.481,1384.853Z" fill="#fff" stroke="#bcebf8" stroke-width="1.5"/>
        <path id="Path_170" data-name="Path 170" d="M2972.1,1422.8a13.293,13.293,0,0,1-7.3-.283c-5.4-1.679-8.082-4.821-6.406-10.373l3.4-10.934-4.107-1.278,1.8-5.777,4.107,1.278,1.665-5.346,8.814.282-2.364,7.592,7.162,2.229-1.8,5.778-7.16-2.231-2.988,9.6c-.714,2.291.15,3.556,2.155,4.179a5.814,5.814,0,0,0,3.764.02Z" fill="#fff" stroke="#bcebf8" stroke-width="1.5"/>
        <path id="Path_171" data-name="Path 171" d="M2999.421,1420.846l-16.6-3.867c-.2,3.291,1.307,4.976,4.082,5.623,2.434.567,4.17-.057,5.1-1.636l6.222,3.707c-2.4,3.907-7.036,5.086-12.686,3.771-8.521-1.984-12.071-7.686-10.2-15.72s7.524-11.6,15.656-9.7c7.939,1.848,11.1,7.458,9.308,15.154A15.831,15.831,0,0,1,2999.421,1420.846Zm-15.562-8.347,9.155,2.132c.287-3.22-.837-5.227-3.418-5.827C2986.967,1408.192,2985.068,1409.29,2983.859,1412.5Z" fill="#fff" stroke="#bcebf8" stroke-width="1.5"/>
        <path id="Path_172" data-name="Path 172" d="M3001.781,1427.213l4.707-4.5c1.331,2.592,3.956,3.818,7.15,4.03,2.345.155,3.789-.45,3.858-1.5.063-.946-1.1-1.625-4.392-2.545-7.485-2-10.066-4.626-9.795-8.718s4.44-8.024,12.573-7.484c5.986.4,9.164,2.36,11.114,5.446l-4.675,4a7.534,7.534,0,0,0-6.563-3.792c-2.5-.165-3.852.647-3.918,1.646s.989,1.718,4.438,2.6c7.3,1.787,10.087,4.328,9.8,8.619-.3,4.589-4.384,7.927-12.416,7.4C3008.175,1432.047,3004.12,1430.475,3001.781,1427.213Z" fill="#fff" stroke="#bcebf8" stroke-width="1.5"/>
      </g>
    </g>
    <g id="Group_269" data-name="Group 269" transform="translate(-12915.809 -834.476)">
      <g id="Group_266-2" data-name="Group 266">
        <g id="Group_265-2" data-name="Group 265">
          <path id="Path_151-2" data-name="Path 151" d="M2778.646,1370.462l.949,12.014-8.574.676-.949-12.013-13.264-19.97,8.873-.7,5.348,8.657,2.876,5.29,2.06-5.68,3.924-9.389,8.723-.689Z" fill="#fff" stroke="#bda3ef" stroke-width="1.5"/>
          <path id="Path_152-2" data-name="Path 152" d="M2811.581,1364.344c1.642,8.035-2.15,13.71-10.333,15.381s-13.9-2.061-15.537-10.1,2.15-13.71,10.332-15.382S2809.939,1356.309,2811.581,1364.344Zm-17.541,3.583c.981,4.8,2.91,6.5,6,5.87s4.195-2.95,3.214-7.752-2.91-6.5-6-5.869S2793.06,1363.125,2794.04,1367.927Z" fill="#fff" stroke="#bda3ef" stroke-width="1.5"/>
          <path id="Path_153-2" data-name="Path 153" d="M2834.5,1344.038l7.226,23.934-7.277,2.2-1.583-4.38c-.472,3.8-2.915,6.26-6.792,7.431-4.883,1.473-8.908.077-10.728-5.954l-4.827-15.988,8.137-2.457,4.205,13.93c.983,3.255,2.483,3.9,4.589,3.263,2.537-.766,3.9-3,2.742-6.834l-3.829-12.685Z" fill="#fff" stroke="#bda3ef" stroke-width="1.5"/>
          <path id="Path_154-2" data-name="Path 154" d="M2858.508,1338.792l.577,7.233a6.5,6.5,0,0,0-3.237-.1c-2.938.608-5.089,3.045-4.288,6.913l2.552,12.339-8.323,1.722-5.066-24.482,7.344-1.52,1.427,5.168c.475-3.877,2.439-6.478,6.258-7.268A5.739,5.739,0,0,1,2858.508,1338.792Z" fill="#fff" stroke="#bda3ef" stroke-width="1.5"/>
          <path id="Path_155-2" data-name="Path 155" d="M2898.393,1355.717l-.4,4.776a6.956,6.956,0,0,1-3.353.976c-3.345.174-5.751-.853-6.64-3.51-1.273,2.469-4.1,4.067-8.687,4.307-4.943.255-7.853-1.8-8.063-5.839-.216-4.145,2.293-6.928,9.31-8.695l5.585-1.391-.047-.9a3.35,3.35,0,0,0-3.737-3.51c-2.4.125-4.094,1.164-4.443,4.086l-6.994-1.639c.6-4.787,4.344-7.936,11.134-8.288,7.688-.4,12.095,2.525,12.43,8.966l.472,9.087q.1,1.945,1.9,1.853A4.875,4.875,0,0,0,2898.393,1355.717Zm-11.915-2.885-.112-2.147-3.995,1.159c-2.07.607-2.883,1.35-2.81,2.749s1.01,2.1,2.558,2.019C2884.216,1356.5,2886.6,1355.128,2886.478,1352.832Z" fill="#fff" stroke="#bda3ef" stroke-width="1.5"/>
          <path id="Path_156-2" data-name="Path 156" d="M2908.973,1352.548c-.034,2.2.5,3.108,2.252,3.135a7.186,7.186,0,0,0,2.556-.412l-.63,5.241a10.945,10.945,0,0,1-5.217,1.171c-5.349-.082-7.563-2.466-7.478-8.015l.43-28.192,8.5.128Z" fill="#fff" stroke="#bda3ef" stroke-width="1.5"/>
          <path id="Path_157-2" data-name="Path 157" d="M2924.412,1353.36c-.153,2.2.333,3.131,2.079,3.252a7.183,7.183,0,0,0,2.575-.272l-.912,5.2a10.944,10.944,0,0,1-5.274.887c-5.337-.37-7.419-2.871-7.034-8.407l1.953-28.133,8.479.589Z" fill="#fff" stroke="#bda3ef" stroke-width="1.5"/>
          <path id="Path_158-2" data-name="Path 158" d="M2946.559,1354.91l-18.112-2.619.995-6.879,18.112,2.619Z" fill="#fff" stroke="#bda3ef" stroke-width="1.5"/>
          <path id="Path_159-2" data-name="Path 159" d="M2965.388,1368.38a13.3,13.3,0,0,1-7.3.1c-5.475-1.4-8.322-4.394-6.937-10.026l2.83-11.095-4.166-1.062,1.5-5.862,4.166,1.062,1.384-5.426,8.817-.175-1.965,7.7,7.267,1.853-1.5,5.862-7.266-1.853-2.485,9.737c-.593,2.325.334,3.543,2.37,4.062a5.815,5.815,0,0,0,3.759-.176Z" fill="#fff" stroke="#bda3ef" stroke-width="1.5"/>
          <path id="Path_160-2" data-name="Path 160" d="M2975.344,1373.113l-8.127-2.495,7.34-23.9,8.127,2.5Zm.584-33.249c.837-2.724,2.637-3.479,5.936-2.467s4.365,2.649,3.529,5.374c-.822,2.677-2.623,3.432-5.921,2.419S2975.1,1342.542,2975.928,1339.864Z" fill="#fff" stroke="#bda3ef" stroke-width="1.5"/>
          <path id="Path_161-2" data-name="Path 161" d="M3023.975,1367.246l-3.3,16.322-8.244-1.613,2.822-14.427c.6-3.091-.5-4.479-2.512-4.873-2.5-.489-4.683,1.021-5.4,4.7l-2.563,13.1-8.342-1.632,2.822-14.427c.6-3.091-.549-4.489-2.512-4.873-2.306-.451-4.644.825-5.432,4.848l-2.533,12.955-8.343-1.631,4.8-24.536,7.459,1.458-.676,4.76a8.732,8.732,0,0,1,9.262-3.59c3.631.71,6.249,2.955,6.833,6.482a8.9,8.9,0,0,1,9.164-3.353C3022.091,1357.859,3025.146,1361.515,3023.975,1367.246Z" fill="#fff" stroke="#bda3ef" stroke-width="1.5"/>
          <path id="Path_162-2" data-name="Path 162" d="M3050.44,1373.876l-17.041-.525c.45,3.265,2.259,4.622,5.107,4.71,2.5.076,4.079-.875,4.682-2.608l6.829,2.412c-1.583,4.3-5.9,6.37-11.7,6.192-8.745-.27-13.346-5.163-13.092-13.41s5.1-12.847,13.444-12.589c8.145.251,12.347,5.131,12.1,13.028A15.683,15.683,0,0,1,3050.44,1373.876Zm-16.9-5.123,9.4.29c-.351-3.212-1.848-4.959-4.5-5.041C3035.741,1363.919,3034.1,1365.369,3033.541,1368.753Z" fill="#fff" stroke="#bda3ef" stroke-width="1.5"/>
        </g>
      </g>
      <g id="Group_267-2" data-name="Group 267">
        <path id="Path_163-2" data-name="Path 163" d="M2806.681,1403.953l7.572-.648.517,6.027-7.075.606,1.616,18.882-8.47.725-1.615-18.882-3.987.341-.516-6.028,3.986-.341-.2-2.292c-.537-6.279,3.667-9.348,9.3-9.829a9.572,9.572,0,0,1,5.851.953l-.394,5.354a4.393,4.393,0,0,0-2.909-.553c-2.589.221-4.049,1.349-3.828,3.941Z" fill="#fff" stroke="#bda3ef" stroke-width="1.5"/>
        <path id="Path_164-2" data-name="Path 164" d="M2844.866,1416.686l.474,4.77a6.953,6.953,0,0,1-3.119,1.57c-3.257.78-5.811.209-7.169-2.241-.8,2.659-3.284,4.744-7.758,5.817-4.813,1.153-8.047-.334-8.99-4.272-.968-4.035.992-7.229,7.57-10.245l5.237-2.387-.21-.874a3.351,3.351,0,0,0-4.314-2.77c-2.332.559-3.813,1.889-3.624,4.826l-7.175-.338c-.28-4.815,2.825-8.593,9.437-10.178,7.488-1.793,12.354.28,13.856,6.552l2.119,8.849q.456,1.9,2.205,1.477A4.867,4.867,0,0,0,2844.866,1416.686Zm-12.24-.665-.5-2.091-3.716,1.867c-1.926.974-2.59,1.853-2.264,3.216s1.377,1.881,2.883,1.519C2831.07,1420.043,2833.16,1418.257,2832.626,1416.021Z" fill="#fff" stroke="#bda3ef" stroke-width="1.5"/>
        <path id="Path_165-2" data-name="Path 165" d="M2865.428,1390.078l-2.5,26.451-9.831,2.523-14.93-21.978,8.668-2.224,9.859,17.7.214-20.289Z" fill="#fff" stroke="#bda3ef" stroke-width="1.5"/>
        <path id="Path_166-2" data-name="Path 166" d="M2893.117,1399.729c.858,8.154-3.464,13.435-11.767,14.308s-13.63-3.4-14.488-11.55,3.465-13.435,11.769-14.307S2892.261,1391.572,2893.117,1399.729Zm-17.8,1.871c.513,4.873,2.269,6.749,5.4,6.42s4.46-2.53,3.948-7.4-2.269-6.749-5.4-6.42S2874.8,1396.727,2875.315,1401.6Z" fill="#fff" stroke="#bda3ef" stroke-width="1.5"/>
        <path id="Path_167-2" data-name="Path 167" d="M2922.256,1387.792l-.516,25-7.6-.156-.155-4.655c-1.623,3.468-4.706,5.054-8.756,4.97-5.1-.1-8.5-2.676-8.367-8.974l.346-16.7,8.5.176-.3,14.548c-.07,3.4,1.157,4.476,3.357,4.522,2.65.054,4.636-1.656,4.718-5.655l.275-13.249Z" fill="#fff" stroke="#bda3ef" stroke-width="1.5"/>
        <path id="Path_168-2" data-name="Path 168" d="M2945.817,1390.8l-1.836,7.019a6.468,6.468,0,0,0-3.024-1.156c-2.974-.394-5.808,1.2-6.324,5.115l-1.653,12.492-8.426-1.115,3.275-24.784,7.438.982-.356,5.35c1.726-3.5,4.435-5.313,8.3-4.8A5.741,5.741,0,0,1,2945.817,1390.8Z" fill="#fff" stroke="#bda3ef" stroke-width="1.5"/>
        <path id="Path_169-2" data-name="Path 169" d="M2951.929,1418.065l-8.263-1.993,5.866-24.3,8.261,1.995Zm-1.448-33.212c.669-2.771,2.421-3.634,5.773-2.825s4.518,2.376,3.85,5.148c-.657,2.72-2.408,3.584-5.761,2.774S2949.825,1387.574,2950.481,1384.853Z" fill="#fff" stroke="#bda3ef" stroke-width="1.5"/>
        <path id="Path_170-2" data-name="Path 170" d="M2972.1,1422.8a13.293,13.293,0,0,1-7.3-.283c-5.4-1.679-8.082-4.821-6.406-10.373l3.4-10.934-4.107-1.278,1.8-5.777,4.107,1.278,1.665-5.346,8.814.282-2.364,7.592,7.162,2.229-1.8,5.778-7.16-2.231-2.988,9.6c-.714,2.291.15,3.556,2.155,4.179a5.814,5.814,0,0,0,3.764.02Z" fill="#fff" stroke="#bda3ef" stroke-width="1.5"/>
        <path id="Path_171-2" data-name="Path 171" d="M2999.421,1420.846l-16.6-3.867c-.2,3.291,1.307,4.976,4.082,5.623,2.434.567,4.17-.057,5.1-1.636l6.222,3.707c-2.4,3.907-7.036,5.086-12.686,3.771-8.521-1.984-12.071-7.686-10.2-15.72s7.524-11.6,15.656-9.7c7.939,1.848,11.1,7.458,9.308,15.154A15.831,15.831,0,0,1,2999.421,1420.846Zm-15.562-8.347,9.155,2.132c.287-3.22-.837-5.227-3.418-5.827C2986.967,1408.192,2985.068,1409.29,2983.859,1412.5Z" fill="#fff" stroke="#bda3ef" stroke-width="1.5"/>
        <path id="Path_172-2" data-name="Path 172" d="M3001.781,1427.213l4.707-4.5c1.331,2.592,3.956,3.818,7.15,4.03,2.345.155,3.789-.45,3.858-1.5.063-.946-1.1-1.625-4.392-2.545-7.485-2-10.066-4.626-9.795-8.718s4.44-8.024,12.573-7.484c5.986.4,9.164,2.36,11.114,5.446l-4.675,4a7.534,7.534,0,0,0-6.563-3.792c-2.5-.165-3.852.647-3.918,1.646s.989,1.718,4.438,2.6c7.3,1.787,10.087,4.328,9.8,8.619-.3,4.589-4.384,7.927-12.416,7.4C3008.175,1432.047,3004.12,1430.475,3001.781,1427.213Z" fill="#fff" stroke="#bda3ef" stroke-width="1.5"/>
      </g>
    </g>
    <g id="Group_268" data-name="Group 268" transform="translate(-12919.809 -838.476)">
      <g id="Group_266-3" data-name="Group 266">
        <g id="Group_265-3" data-name="Group 265">
          <path id="Path_151-3" data-name="Path 151" d="M2778.646,1370.462l.949,12.014-8.574.676-.949-12.013-13.264-19.97,8.873-.7,5.348,8.657,2.876,5.29,2.06-5.68,3.924-9.389,8.723-.689Z" fill="#fff" stroke="#f00540" stroke-width="1.5"/>
          <path id="Path_152-3" data-name="Path 152" d="M2811.581,1364.344c1.642,8.035-2.15,13.71-10.333,15.381s-13.9-2.061-15.537-10.1,2.15-13.71,10.332-15.382S2809.939,1356.309,2811.581,1364.344Zm-17.541,3.583c.981,4.8,2.91,6.5,6,5.87s4.195-2.95,3.214-7.752-2.91-6.5-6-5.869S2793.06,1363.125,2794.04,1367.927Z" fill="#fff" stroke="#f00540" stroke-width="1.5"/>
          <path id="Path_153-3" data-name="Path 153" d="M2834.5,1344.038l7.226,23.934-7.277,2.2-1.583-4.38c-.472,3.8-2.915,6.26-6.792,7.431-4.883,1.473-8.908.077-10.728-5.954l-4.827-15.988,8.137-2.457,4.205,13.93c.983,3.255,2.483,3.9,4.589,3.263,2.537-.766,3.9-3,2.742-6.834l-3.829-12.685Z" fill="#fff" stroke="#f00540" stroke-width="1.5"/>
          <path id="Path_154-3" data-name="Path 154" d="M2858.508,1338.792l.577,7.233a6.5,6.5,0,0,0-3.237-.1c-2.938.608-5.089,3.045-4.288,6.913l2.552,12.339-8.323,1.722-5.066-24.482,7.344-1.52,1.427,5.168c.475-3.877,2.439-6.478,6.258-7.268A5.739,5.739,0,0,1,2858.508,1338.792Z" fill="#fff" stroke="#f00540" stroke-width="1.5"/>
          <path id="Path_155-3" data-name="Path 155" d="M2898.393,1355.717l-.4,4.776a6.956,6.956,0,0,1-3.353.976c-3.345.174-5.751-.853-6.64-3.51-1.273,2.469-4.1,4.067-8.687,4.307-4.943.255-7.853-1.8-8.063-5.839-.216-4.145,2.293-6.928,9.31-8.695l5.585-1.391-.047-.9a3.35,3.35,0,0,0-3.737-3.51c-2.4.125-4.094,1.164-4.443,4.086l-6.994-1.639c.6-4.787,4.344-7.936,11.134-8.288,7.688-.4,12.095,2.525,12.43,8.966l.472,9.087q.1,1.945,1.9,1.853A4.875,4.875,0,0,0,2898.393,1355.717Zm-11.915-2.885-.112-2.147-3.995,1.159c-2.07.607-2.883,1.35-2.81,2.749s1.01,2.1,2.558,2.019C2884.216,1356.5,2886.6,1355.128,2886.478,1352.832Z" fill="#fff" stroke="#f00540" stroke-width="1.5"/>
          <path id="Path_156-3" data-name="Path 156" d="M2908.973,1352.548c-.034,2.2.5,3.108,2.252,3.135a7.186,7.186,0,0,0,2.556-.412l-.63,5.241a10.945,10.945,0,0,1-5.217,1.171c-5.349-.082-7.563-2.466-7.478-8.015l.43-28.192,8.5.128Z" fill="#fff" stroke="#f00540" stroke-width="1.5"/>
          <path id="Path_157-3" data-name="Path 157" d="M2924.412,1353.36c-.153,2.2.333,3.131,2.079,3.252a7.183,7.183,0,0,0,2.575-.272l-.912,5.2a10.944,10.944,0,0,1-5.274.887c-5.337-.37-7.419-2.871-7.034-8.407l1.953-28.133,8.479.589Z" fill="#fff" stroke="#f00540" stroke-width="1.5"/>
          <path id="Path_158-3" data-name="Path 158" d="M2946.559,1354.91l-18.112-2.619.995-6.879,18.112,2.619Z" fill="#fff" stroke="#f00540" stroke-width="1.5"/>
          <path id="Path_159-3" data-name="Path 159" d="M2965.388,1368.38a13.3,13.3,0,0,1-7.3.1c-5.475-1.4-8.322-4.394-6.937-10.026l2.83-11.095-4.166-1.062,1.5-5.862,4.166,1.062,1.384-5.426,8.817-.175-1.965,7.7,7.267,1.853-1.5,5.862-7.266-1.853-2.485,9.737c-.593,2.325.334,3.543,2.37,4.062a5.815,5.815,0,0,0,3.759-.176Z" fill="#fff" stroke="#f00540" stroke-width="1.5"/>
          <path id="Path_160-3" data-name="Path 160" d="M2975.344,1373.113l-8.127-2.495,7.34-23.9,8.127,2.5Zm.584-33.249c.837-2.724,2.637-3.479,5.936-2.467s4.365,2.649,3.529,5.374c-.822,2.677-2.623,3.432-5.921,2.419S2975.1,1342.542,2975.928,1339.864Z" fill="#fff" stroke="#f00540" stroke-width="1.5"/>
          <path id="Path_161-3" data-name="Path 161" d="M3023.975,1367.246l-3.3,16.322-8.244-1.613,2.822-14.427c.6-3.091-.5-4.479-2.512-4.873-2.5-.489-4.683,1.021-5.4,4.7l-2.563,13.1-8.342-1.632,2.822-14.427c.6-3.091-.549-4.489-2.512-4.873-2.306-.451-4.644.825-5.432,4.848l-2.533,12.955-8.343-1.631,4.8-24.536,7.459,1.458-.676,4.76a8.732,8.732,0,0,1,9.262-3.59c3.631.71,6.249,2.955,6.833,6.482a8.9,8.9,0,0,1,9.164-3.353C3022.091,1357.859,3025.146,1361.515,3023.975,1367.246Z" fill="#fff" stroke="#f00540" stroke-width="1.5"/>
          <path id="Path_162-3" data-name="Path 162" d="M3050.44,1373.876l-17.041-.525c.45,3.265,2.259,4.622,5.107,4.71,2.5.076,4.079-.875,4.682-2.608l6.829,2.412c-1.583,4.3-5.9,6.37-11.7,6.192-8.745-.27-13.346-5.163-13.092-13.41s5.1-12.847,13.444-12.589c8.145.251,12.347,5.131,12.1,13.028A15.683,15.683,0,0,1,3050.44,1373.876Zm-16.9-5.123,9.4.29c-.351-3.212-1.848-4.959-4.5-5.041C3035.741,1363.919,3034.1,1365.369,3033.541,1368.753Z" fill="#fff" stroke="#f00540" stroke-width="1.5"/>
        </g>
      </g>
      <g id="Group_267-3" data-name="Group 267">
        <path id="Path_163-3" data-name="Path 163" d="M2806.681,1403.953l7.572-.648.517,6.027-7.075.606,1.616,18.882-8.47.725-1.615-18.882-3.987.341-.516-6.028,3.986-.341-.2-2.292c-.537-6.279,3.667-9.348,9.3-9.829a9.572,9.572,0,0,1,5.851.953l-.394,5.354a4.393,4.393,0,0,0-2.909-.553c-2.589.221-4.049,1.349-3.828,3.941Z" fill="#fff" stroke="#f00540" stroke-width="1.5"/>
        <path id="Path_164-3" data-name="Path 164" d="M2844.866,1416.686l.474,4.77a6.953,6.953,0,0,1-3.119,1.57c-3.257.78-5.811.209-7.169-2.241-.8,2.659-3.284,4.744-7.758,5.817-4.813,1.153-8.047-.334-8.99-4.272-.968-4.035.992-7.229,7.57-10.245l5.237-2.387-.21-.874a3.351,3.351,0,0,0-4.314-2.77c-2.332.559-3.813,1.889-3.624,4.826l-7.175-.338c-.28-4.815,2.825-8.593,9.437-10.178,7.488-1.793,12.354.28,13.856,6.552l2.119,8.849q.456,1.9,2.205,1.477A4.867,4.867,0,0,0,2844.866,1416.686Zm-12.24-.665-.5-2.091-3.716,1.867c-1.926.974-2.59,1.853-2.264,3.216s1.377,1.881,2.883,1.519C2831.07,1420.043,2833.16,1418.257,2832.626,1416.021Z" fill="#fff" stroke="#f00540" stroke-width="1.5"/>
        <path id="Path_165-3" data-name="Path 165" d="M2865.428,1390.078l-2.5,26.451-9.831,2.523-14.93-21.978,8.668-2.224,9.859,17.7.214-20.289Z" fill="#fff" stroke="#f00540" stroke-width="1.5"/>
        <path id="Path_166-3" data-name="Path 166" d="M2893.117,1399.729c.858,8.154-3.464,13.435-11.767,14.308s-13.63-3.4-14.488-11.55,3.465-13.435,11.769-14.307S2892.261,1391.572,2893.117,1399.729Zm-17.8,1.871c.513,4.873,2.269,6.749,5.4,6.42s4.46-2.53,3.948-7.4-2.269-6.749-5.4-6.42S2874.8,1396.727,2875.315,1401.6Z" fill="#fff" stroke="#f00540" stroke-width="1.5"/>
        <path id="Path_167-3" data-name="Path 167" d="M2922.256,1387.792l-.516,25-7.6-.156-.155-4.655c-1.623,3.468-4.706,5.054-8.756,4.97-5.1-.1-8.5-2.676-8.367-8.974l.346-16.7,8.5.176-.3,14.548c-.07,3.4,1.157,4.476,3.357,4.522,2.65.054,4.636-1.656,4.718-5.655l.275-13.249Z" fill="#fff" stroke="#f00540" stroke-width="1.5"/>
        <path id="Path_168-3" data-name="Path 168" d="M2945.817,1390.8l-1.836,7.019a6.468,6.468,0,0,0-3.024-1.156c-2.974-.394-5.808,1.2-6.324,5.115l-1.653,12.492-8.426-1.115,3.275-24.784,7.438.982-.356,5.35c1.726-3.5,4.435-5.313,8.3-4.8A5.741,5.741,0,0,1,2945.817,1390.8Z" fill="#fff" stroke="#f00540" stroke-width="1.5"/>
        <path id="Path_169-3" data-name="Path 169" d="M2951.929,1418.065l-8.263-1.993,5.866-24.3,8.261,1.995Zm-1.448-33.212c.669-2.771,2.421-3.634,5.773-2.825s4.518,2.376,3.85,5.148c-.657,2.72-2.408,3.584-5.761,2.774S2949.825,1387.574,2950.481,1384.853Z" fill="#fff" stroke="#f00540" stroke-width="1.5"/>
        <path id="Path_170-3" data-name="Path 170" d="M2972.1,1422.8a13.293,13.293,0,0,1-7.3-.283c-5.4-1.679-8.082-4.821-6.406-10.373l3.4-10.934-4.107-1.278,1.8-5.777,4.107,1.278,1.665-5.346,8.814.282-2.364,7.592,7.162,2.229-1.8,5.778-7.16-2.231-2.988,9.6c-.714,2.291.15,3.556,2.155,4.179a5.814,5.814,0,0,0,3.764.02Z" fill="#fff" stroke="#f00540" stroke-width="1.5"/>
        <path id="Path_171-3" data-name="Path 171" d="M2999.421,1420.846l-16.6-3.867c-.2,3.291,1.307,4.976,4.082,5.623,2.434.567,4.17-.057,5.1-1.636l6.222,3.707c-2.4,3.907-7.036,5.086-12.686,3.771-8.521-1.984-12.071-7.686-10.2-15.72s7.524-11.6,15.656-9.7c7.939,1.848,11.1,7.458,9.308,15.154A15.831,15.831,0,0,1,2999.421,1420.846Zm-15.562-8.347,9.155,2.132c.287-3.22-.837-5.227-3.418-5.827C2986.967,1408.192,2985.068,1409.29,2983.859,1412.5Z" fill="#fff" stroke="#f00540" stroke-width="1.5"/>
        <path id="Path_172-3" data-name="Path 172" d="M3001.781,1427.213l4.707-4.5c1.331,2.592,3.956,3.818,7.15,4.03,2.345.155,3.789-.45,3.858-1.5.063-.946-1.1-1.625-4.392-2.545-7.485-2-10.066-4.626-9.795-8.718s4.44-8.024,12.573-7.484c5.986.4,9.164,2.36,11.114,5.446l-4.675,4a7.534,7.534,0,0,0-6.563-3.792c-2.5-.165-3.852.647-3.918,1.646s.989,1.718,4.438,2.6c7.3,1.787,10.087,4.328,9.8,8.619-.3,4.589-4.384,7.927-12.416,7.4C3008.175,1432.047,3004.12,1430.475,3001.781,1427.213Z" fill="#fff" stroke="#f00540" stroke-width="1.5"/>
      </g>
    </g>
  </g>
</svg>
